# xmcd CD database file
#
# Track frame offsets:
#	150
#	39320
#	53870
#	79805
#	105120
#	150383
#	181370
#
# Disc length: 2729 seconds
#
# Revision: 0
# Processed by: cddbd v1.5.1PL2 Copyright (c) Steve Scherf et al.
# Submitted via: CDex 1.51
#
DISCID=440aa707
DTITLE=George Bohanon - Blue Phase
DYEAR=1990
DGENRE=Jazz
TTITLE0=Walkin
TTITLE1=Keep Hope Alive
TTITLE2=Blue Phase
TTITLE3=Linda
TTITLE4=All Blues
TTITLE5=Theme For Ramona
TTITLE6=If You Could See Me Now
EXTD=YEAR: 1990
EXTT0=
EXTT1=
EXTT2=
EXTT3=
EXTT4=
EXTT5=
EXTT6=
PLAYORDER=
